# xmcd
#
# Track frame offsets: 
#        150
#        19719
#        39331
#        56854
#        74600
#        93936
#        116559
#        137347
#        160049
#        179754
#        198125
#        218573
#        239167
#        260862
#
# Disc length: 3743 seconds
#
# Revision: 0
# Processed by: cddbd v1.5.2PL0 Copyright (c) Steve Scherf et al.
# Submitted via: ExactAudioCopy v1.0b3
#
DISCID=cb0e9d0e
DTITLE=香西かおり - 20周年記念 香西かおり シングルコレクション Disc 1 UPCH-20002-5
DYEAR=1900
DGENRE=Blues
TTITLE0=雨酒場
TTITLE1=新湊慕情
TTITLE2=恋舟
TTITLE3=恋は女の命です 
TTITLE4=流恋草
TTITLE5=早稲田通り 
TTITLE6=花挽歌
TTITLE7=嘘つき女のブルース 
TTITLE8=恋紅葉
TTITLE9=夢吹雪 
TTITLE10=無言坂 
TTITLE11=あぁ人恋し
TTITLE12=恋慕川 
TTITLE13=小夜しぐれ 
EXTD=
EXTT0=
EXTT1=
EXTT2=
EXTT3=
EXTT4=
EXTT5=
EXTT6=
EXTT7=
EXTT8=
EXTT9=
EXTT10=
EXTT11=
EXTT12=
EXTT13=
PLAYORDER=
